<svg data-bbox="0 0 93.4 93.4" viewBox="0 0 93.4 93.4" xmlns="http://www.w3.org/2000/svg" data-type="color" aria-hidden="true" aria-labelledby="svgcid-n16au1qp5y6t"><path fill="#1e721e" d="M93.4 46.7c0 25.792-20.908 46.7-46.7 46.7S0 72.492 0 46.7 20.908 0 46.7 0s46.7 20.908 46.7 46.7z" data-color="1"/><path d="M34.03 67.53c-.62-.22-.84-.68-.84-1.32v-31c0-.94.38-1.32 1.31-1.32h10.02c.9 0 1.29.37 1.29 1.27v31.1c0 .63-.24 1.04-.81 1.27H34.03Zm1.28-28.37h5.22v2.09h-5.21v3.16h3.11v2.1h-3.1v3.16h5.2v2.1h-5.2v3.16h3.11v2.1h-3.12v3.15h5.22v2.11h-5.22v3.12h8.37V36.03h-8.38v3.14ZM54.01 67.53c-.25-.18-.54-.34-.76-.55-1.6-1.58-3.18-3.17-4.77-4.76-.08-.08-.18-.13-.25-.18l1.52-1.52c1.1 1.1 2.21 2.23 3.38 3.4V37.59l-3.33 3.36-1.54-1.54s.1-.11.17-.18l4.88-4.88c.63-.63 1.17-.63 1.81 0 1.62 1.62 3.24 3.24 4.86 4.85.07.07.15.13.19.17l-1.5 1.5-3.38-3.38v26.34c1.12-1.13 2.24-2.26 3.33-3.37.55.56 1.04 1.04 1.59 1.6-.05.03-.17.07-.26.16-1.58 1.58-3.16 3.16-4.74 4.73-.22.22-.5.38-.75.56H54v.02Z" fill="#fff" data-color="2"/></svg>