<svg data-bbox="0 0 93.4 93.4" viewBox="0 0 93.4 93.4" xmlns="http://www.w3.org/2000/svg" data-type="ugc" aria-hidden="true" aria-labelledby="svgcid--5w495z1pabm3"><title/><g><path fill="#1e721e" d="M93.4 46.7c0 25.792-20.908 46.7-46.7 46.7S0 72.492 0 46.7 20.908 0 46.7 0s46.7 20.908 46.7 46.7z"/><path d="M49.82 29.17c.64.13 1.3.21 1.93.39 3.11.89 5.37 2.81 6.79 5.72.13.26.26.36.56.38 5.36.43 9.53 5.27 9.13 10.63-.26 3.39-1.84 6.03-4.69 7.9-.15.1-.31.31-.31.47-.02 2.68 0 5.36 0 8.03 0 .05 0 .11.02.19.15 0 .28.02.42.02.78.01 1.33.36 1.59 1.02.28.72.11 1.35-.44 1.88-1.2 1.14-2.44 2.24-3.6 3.41-1.15 1.16-2.03 1.13-3.14 0-1.15-1.17-2.39-2.25-3.58-3.38-.6-.57-.76-1.25-.46-1.95.26-.59.72-.91 1.36-.97.19-.02.39 0 .62 0v-1.62c-1.96.39-3.83.13-5.67-.72v4.49h.48c.72.01 1.24.34 1.5 1.01s.14 1.3-.38 1.82c-.43.43-.87.83-1.31 1.24-.92.86-1.84 1.73-2.76 2.59-.74.69-1.58.69-2.32 0-1.33-1.25-2.66-2.49-3.98-3.74-.62-.59-.77-1.32-.42-2.02.26-.53.69-.83 1.28-.89.21-.02.42-.02.69-.03v-3.56c-2.11-.06-4-.7-5.72-1.98v3.41h.47c.71.01 1.24.32 1.52.99.28.68.15 1.29-.34 1.83-.16.17-.34.33-.52.49-1.19 1.11-2.37 2.23-3.56 3.34-.77.72-1.59.72-2.35.01-1.32-1.24-2.64-2.48-3.96-3.71-.52-.49-.75-1.07-.55-1.78.2-.68.77-1.13 1.48-1.16h.6v-5.44c0-.3-.1-.44-.36-.58-2.63-1.43-4.16-3.63-4.61-6.59 0-.09-.05-.18-.08-.28v-1.6c.03-.08.06-.15.07-.23.29-2.24 1.29-4.1 3.03-5.53.39-.32.51-.63.51-1.12-.1-6.42 6.04-11 12.16-9.06.27.09.42.03.61-.17 1.06-1.13 2.32-2 3.79-2.49.86-.29 1.75-.45 2.63-.66h1.88ZM66.81 46.2c0-5.04-3.52-8.83-8.07-9.11-.67-.04-1.14-.35-1.4-.97-.66-1.62-1.77-2.87-3.2-3.85-3.72-2.56-8.56-2.13-11.55 1.06-.62.66-1.25.84-2.1.54-1.34-.47-2.72-.51-4.1-.2-3.82.88-6.32 4.16-6.17 8.16.03.78-.22 1.32-.84 1.79-1.71 1.31-2.65 3.08-2.77 5.21-.27 4.72 3.85 8.34 8.5 7.49.77-.14 1.31.08 1.79.68 2.63 3.33 7.24 4.01 10.73 1.62.91-.62 1.35-.62 2.24.02 4.24 3.04 10.29.88 11.62-4.17.17-.63.5-1.04 1.05-1.38 2.76-1.67 4.12-4.17 4.25-6.9h.02ZM31.64 57.63v5.8c0 .69-.25.93-.94.93-.25 0-.51-.02-.76 0-.15.01-.29.09-.44.14.08.14.13.3.24.41 1.25 1.19 2.51 2.36 3.76 3.55.23.21.36.21.58 0 1.25-1.19 2.51-2.36 3.76-3.54.03-.03.07-.05.09-.09.05-.11.15-.23.12-.32-.02-.07-.19-.13-.3-.14-.26-.02-.53 0-.8 0-.81 0-1.02-.21-1.02-1.02v-4.96c0-.49-.22-.67-.69-.6-1.19.17-2.37.15-3.61-.15h.01Zm17.2 1.96c-.17.1-.28.16-.38.23a8.941 8.941 0 0 1-3.5 1.46c-.34.06-.42.19-.42.51.02 1.26 0 2.52 0 3.78 0 .69-.24.92-.94.93-.27 0-.53-.01-.8 0-.13 0-.25.07-.38.11.06.13.09.29.19.38.63.61 1.28 1.21 1.93 1.81.71.67 1.42 1.34 2.15 2.02.12-.1.22-.18.31-.26.82-.77 1.64-1.53 2.45-2.3.46-.43.92-.86 1.37-1.3.09-.08.11-.23.16-.35-.11-.04-.22-.1-.33-.11-.27-.02-.53 0-.8 0-.78 0-.99-.22-.99-1v-5.38c0-.16-.02-.32-.03-.54h.01Zm12.94-2.08c-.08.06-.11.07-.12.09a9.163 9.163 0 0 1-3.96 3.22c-.11.05-.21.25-.21.38-.02.78 0 1.57 0 2.36 0 .53-.28.8-.81.81-.28 0-.56-.02-.84 0-.16.01-.32.09-.48.14.09.15.15.32.27.44 1.23 1.17 2.47 2.32 3.7 3.49.23.22.37.25.61.01 1.21-1.16 2.45-2.31 3.67-3.46.08-.08.17-.15.24-.24.16-.22.11-.37-.18-.39-.25-.01-.5 0-.76 0-.97 0-1.14-.17-1.14-1.16v-5.69h.02Z" fill="#fff" stroke="#fff" stroke-miterlimit="10" stroke-width=".25"/></g></svg>