<svg data-bbox="0 0 93.4 93.4" viewBox="0 0 93.4 93.4" xmlns="http://www.w3.org/2000/svg" data-type="ugc" aria-hidden="true" aria-labelledby="svgcid--oz7f61nx6mve"><title/><g><path fill="#1e721e" d="M93.4 46.7c0 25.792-20.908 46.7-46.7 46.7S0 72.492 0 46.7 20.908 0 46.7 0s46.7 20.908 46.7 46.7z"/><path d="M49.44 33.67c.18.15.38.28.54.44 2.08 2.09 4.16 4.18 6.25 6.26.29.29.4.59.4.99v6.4c.16-.14.25-.23.34-.32 1.27-1.27 2.55-2.53 3.82-3.8.55-.54.83-.54 1.37 0 1.02 1.03 2.05 2.05 3.07 3.08.58.59.58.82-.02 1.42-2.78 2.78-5.55 5.56-8.33 8.33a.84.84 0 0 0-.27.65v13.53c0 .18 0 .37-.04.55-.06.32-.27.49-.58.53-.12.01-.25 0-.37 0H28.71c-.79 0-.98-.2-.98-.99V34.65c0-.41.08-.76.45-.99h21.26Zm-20.35 1.35v35.37h26.18V58.18c-.62.6-1.21 1.2-1.83 1.77-.22.2-.49.38-.77.48-1.44.5-2.89.96-4.33 1.44-.12.04-.24.09-.35.14.36.06.71.06 1.05.06h1.93c.37 0 .62.25.64.59.03.37-.18.63-.57.7-.12.02-.25.03-.37.03H33.64c-.16 0-.33 0-.48-.05-.33-.09-.49-.32-.47-.66.02-.33.21-.53.52-.59.16-.03.32-.02.48-.02h13.33c-.61-.74.14-1.33.1-1.99H33.66c-.14 0-.28.01-.41-.01-.33-.06-.53-.25-.56-.6-.03-.34.16-.6.5-.68.17-.04.34-.04.52-.04h13.57c.26 0 .39-.06.47-.33.22-.73.46-1.46.73-2.18.1-.27.26-.54.46-.74 2.03-2.05 4.08-4.09 6.11-6.14.14-.14.24-.38.24-.57.02-2.23.01-4.46 0-6.69 0-.12-.01-.24-.02-.39h-5.75c-.68 0-.86-.18-.86-.86v-5.83H29.09Zm29.43 12.82-8.28 8.34 2.5 2.5c2.77-2.76 5.57-5.53 8.34-8.29-.85-.84-1.69-1.69-2.56-2.56Zm3.52 1.55c.66-.66 1.32-1.31 1.91-1.9-.82-.84-1.67-1.7-2.46-2.51-.63.64-1.28 1.29-1.92 1.94l2.47 2.47Zm-7.76-9.02c-1.43-1.42-2.84-2.83-4.24-4.23v4.23h4.24Zm-5.81 20.1c1.06-.36 2.03-.68 2.96-.99l-1.97-1.97c-.32.95-.64 1.92-.99 2.97Z" fill="#fff" stroke="#fff" stroke-miterlimit="10" stroke-width=".25"/><path d="M42.13 66.69h-8.47c-.15 0-.3 0-.44-.02-.31-.07-.5-.26-.52-.59-.02-.34.14-.57.47-.66.14-.04.29-.05.44-.05H50.7c.15 0 .3.01.44.05.33.09.49.32.47.66-.02.33-.21.52-.52.59-.13.03-.27.02-.41.02h-8.55Z" fill="#fff" stroke="#fff" stroke-miterlimit="10" stroke-width=".25"/><path d="M38.04 55.44h4.34c.15 0 .3 0 .44.02.31.07.5.29.5.61s-.16.57-.49.65c-.14.03-.29.04-.44.04h-8.76c-.15 0-.3 0-.44-.04-.34-.07-.51-.3-.5-.64 0-.34.19-.55.52-.62.13-.03.27-.02.41-.02h4.42Z" fill="#fff" stroke="#fff" stroke-miterlimit="10" stroke-width=".25"/></g></svg>