<svg data-bbox="0 0 93.4 93.4" viewBox="0 0 93.4 93.4" xmlns="http://www.w3.org/2000/svg" data-type="ugc" aria-hidden="true" aria-labelledby="svgcid-14l324-ihfmnr"><title/><g><path fill="#1e721e" d="M93.4 46.7c0 25.792-20.908 46.7-46.7 46.7S0 72.492 0 46.7 20.908 0 46.7 0s46.7 20.908 46.7 46.7z"/><path d="M47.04 28.58c.47.26.62.66.61 1.18-.02.83 0 1.66 0 2.49 8.71.3 16.88 7.55 17.49 17.53h1.01c.59 0 1.18-.02 1.77 0 .57.02.9.37.91.9.01.55-.32.92-.91.94-.75.03-1.5 0-2.25 0h-.55c-.32 4.71-2.09 8.76-5.4 12.08-3.32 3.32-7.36 5.1-12.1 5.42v2.77c-.04.59-.38.93-.92.93s-.9-.34-.93-.92c-.02-.46 0-.92 0-1.38v-1.39c-4.69-.32-8.74-2.07-12.06-5.39-3.33-3.32-5.11-7.36-5.44-12.12H25.7c-.53 0-.93-.16-1.13-.67v-.52c.21-.51.61-.69 1.13-.67h2.57c.55-9.57 8.35-17.13 17.49-17.53 0-.83.02-1.66 0-2.49-.02-.52.14-.92.61-1.18h.67Zm-16.9 21.19c.17 0 .31.02.45.02h2.16c.66 0 1.02.34 1.03.91 0 .59-.37.93-1.04.94h-2.58c.31 8.36 7.27 15.29 15.61 15.61v-.46c0-.72-.01-1.44 0-2.16.01-.65.37-1.01.94-1 .56 0 .9.36.91.99.02.73 0 1.47 0 2.2 0 .15.01.3.02.45 9.39-.51 15.46-8.4 15.56-15.62h-.47c-.73 0-1.47.02-2.2 0-.59-.02-.93-.38-.93-.92s.34-.9.93-.92c.58-.02 1.15 0 1.73 0h.98c-.48-9.24-8.22-15.46-15.61-15.58v2.33c0 .88-.32 1.31-.96 1.3-.63 0-.93-.43-.93-1.29V34.2c-8.02.33-15.15 6.83-15.61 15.59v-.02Z" fill="#fff" stroke="#fff" stroke-miterlimit="10" stroke-width=".25"/><path d="M52.23 50.7c0 3.13-2.39 5.54-5.51 5.54s-5.56-2.4-5.55-5.54c0-3.12 2.41-5.52 5.53-5.52s5.53 2.4 5.53 5.52Zm-1.84.05c.03-2-1.61-3.68-3.64-3.73-1.99-.05-3.69 1.6-3.74 3.63-.05 2.01 1.63 3.73 3.66 3.75 2 .03 3.68-1.63 3.72-3.65Z" fill="#fff" stroke="#fff" stroke-miterlimit="10" stroke-width=".25"/></g></svg>